<svg width="1439" height="1333" viewBox="0 0 1439 1333" fill="none" xmlns="http://www.w3.org/2000/svg">
<path d="M158.459 1080.24V1254.42H122.571V1108.36H52.5879V1254.42H16.6992V1080.24H158.459ZM332.878 1163.27V1171.52C332.878 1184.76 331.084 1196.64 327.495 1207.17C323.906 1217.7 318.842 1226.67 312.302 1234.09C305.763 1241.42 297.947 1247.05 288.855 1250.95C279.843 1254.86 269.834 1256.82 258.828 1256.82C247.902 1256.82 237.893 1254.86 228.801 1250.95C219.789 1247.05 211.973 1241.42 205.354 1234.09C198.735 1226.67 193.59 1217.7 189.922 1207.17C186.333 1196.64 184.539 1184.76 184.539 1171.52V1163.27C184.539 1149.95 186.333 1138.06 189.922 1127.62C193.511 1117.09 198.575 1108.12 205.115 1100.7C211.734 1093.28 219.55 1087.62 228.562 1083.71C237.654 1079.81 247.663 1077.85 258.589 1077.85C269.595 1077.85 279.604 1079.81 288.616 1083.71C297.708 1087.62 305.523 1093.28 312.063 1100.7C318.682 1108.12 323.787 1117.09 327.375 1127.62C331.044 1138.06 332.878 1149.95 332.878 1163.27ZM296.631 1171.52V1163.03C296.631 1153.78 295.793 1145.64 294.119 1138.62C292.444 1131.6 289.972 1125.7 286.702 1120.92C283.432 1116.13 279.444 1112.54 274.739 1110.15C270.033 1107.68 264.65 1106.44 258.589 1106.44C252.528 1106.44 247.144 1107.68 242.439 1110.15C237.813 1112.54 233.866 1116.13 230.596 1120.92C227.406 1125.7 224.973 1131.6 223.298 1138.62C221.624 1145.64 220.786 1153.78 220.786 1163.03V1171.52C220.786 1180.69 221.624 1188.83 223.298 1195.92C224.973 1202.94 227.445 1208.88 230.715 1213.75C233.985 1218.53 237.973 1222.16 242.678 1224.64C247.384 1227.11 252.767 1228.34 258.828 1228.34C264.889 1228.34 270.273 1227.11 274.978 1224.64C279.683 1222.16 283.631 1218.53 286.821 1213.75C290.011 1208.88 292.444 1202.94 294.119 1195.92C295.793 1188.83 296.631 1180.69 296.631 1171.52ZM428.462 1080.24V1254.42H392.693V1080.24H428.462ZM482.056 1080.24V1108.36H339.937V1080.24H482.056ZM642.239 1163.27V1171.52C642.239 1184.76 640.444 1196.64 636.855 1207.17C633.267 1217.7 628.202 1226.67 621.663 1234.09C615.123 1241.42 607.307 1247.05 598.215 1250.95C589.203 1254.86 579.194 1256.82 568.188 1256.82C557.262 1256.82 547.253 1254.86 538.162 1250.95C529.15 1247.05 521.334 1241.42 514.714 1234.09C508.095 1226.67 502.951 1217.7 499.282 1207.17C495.693 1196.64 493.899 1184.76 493.899 1171.52V1163.27C493.899 1149.95 495.693 1138.06 499.282 1127.62C502.871 1117.09 507.935 1108.12 514.475 1100.7C521.095 1093.28 528.91 1087.62 537.922 1083.71C547.014 1079.81 557.023 1077.85 567.949 1077.85C578.955 1077.85 588.964 1079.81 597.976 1083.71C607.068 1087.62 614.884 1093.28 621.423 1100.7C628.043 1108.12 633.147 1117.09 636.736 1127.62C640.404 1138.06 642.239 1149.95 642.239 1163.27ZM605.991 1171.52V1163.03C605.991 1153.78 605.154 1145.64 603.479 1138.62C601.804 1131.6 599.332 1125.7 596.062 1120.92C592.792 1116.13 588.805 1112.54 584.099 1110.15C579.394 1107.68 574.01 1106.44 567.949 1106.44C561.888 1106.44 556.505 1107.68 551.799 1110.15C547.174 1112.54 543.226 1116.13 539.956 1120.92C536.766 1125.7 534.333 1131.6 532.659 1138.62C530.984 1145.64 530.146 1153.78 530.146 1163.03V1171.52C530.146 1180.69 530.984 1188.83 532.659 1195.92C534.333 1202.94 536.806 1208.88 540.076 1213.75C543.346 1218.53 547.333 1222.16 552.039 1224.64C556.744 1227.11 562.127 1228.34 568.188 1228.34C574.25 1228.34 579.633 1227.11 584.338 1224.64C589.044 1222.16 592.992 1218.53 596.182 1213.75C599.372 1208.88 601.804 1202.94 603.479 1195.92C605.154 1188.83 605.991 1180.69 605.991 1171.52ZM703.967 1080.24V1254.42H668.079V1080.24H703.967ZM808.284 1080.24L739.258 1166.26L699.421 1209.08L692.961 1175.11L719.878 1138.26L764.26 1080.24H808.284ZM767.49 1254.42L716.169 1173.91L742.727 1151.66L809.958 1254.42H767.49Z" fill="#E8143E"/>
<path d="M903.386 1192.63H939.156C938.438 1204.36 935.208 1214.76 929.466 1223.86C923.803 1232.95 915.868 1240.05 905.659 1245.15C895.531 1250.25 883.329 1252.81 869.053 1252.81C857.888 1252.81 847.879 1250.89 839.026 1247.06C830.174 1243.16 822.597 1237.57 816.297 1230.32C810.076 1223.06 805.331 1214.29 802.061 1204C798.791 1193.71 797.156 1182.18 797.156 1169.42V1157.34C797.156 1144.58 798.831 1133.06 802.18 1122.77C805.61 1112.4 810.475 1103.59 816.775 1096.33C823.155 1089.07 830.772 1083.49 839.624 1079.58C848.477 1075.68 858.366 1073.72 869.292 1073.72C883.807 1073.72 896.049 1076.35 906.018 1081.62C916.067 1086.88 923.843 1094.14 929.346 1103.39C934.929 1112.64 938.278 1123.17 939.395 1134.97H903.506C903.107 1127.95 901.712 1122.01 899.319 1117.15C896.927 1112.2 893.298 1108.49 888.433 1106.02C883.648 1103.47 877.267 1102.19 869.292 1102.19C863.311 1102.19 858.087 1103.31 853.621 1105.54C849.155 1107.78 845.406 1111.17 842.376 1115.71C839.345 1120.26 837.072 1126 835.557 1132.94C834.121 1139.8 833.404 1147.85 833.404 1157.1V1169.42C833.404 1178.44 834.081 1186.37 835.437 1193.23C836.793 1200.01 838.867 1205.75 841.658 1210.46C844.529 1215.08 848.198 1218.59 852.664 1220.98C857.21 1223.3 862.673 1224.45 869.053 1224.45C876.55 1224.45 882.731 1223.26 887.595 1220.86C892.46 1218.47 896.169 1214.92 898.721 1210.22C901.353 1205.51 902.908 1199.65 903.386 1192.63ZM1033.54 1106.02L986.17 1250.41H948.008L1012.73 1076.23H1037.01L1033.54 1106.02ZM1072.9 1250.41L1025.41 1106.02L1021.58 1076.23H1046.1L1111.18 1250.41H1072.9ZM1070.75 1185.57V1213.69H978.753V1185.57H1070.75ZM1218.01 1204.83C1218.01 1201.72 1217.53 1198.93 1216.57 1196.46C1215.7 1193.91 1214.02 1191.6 1211.55 1189.52C1209.08 1187.37 1205.61 1185.26 1201.14 1183.18C1196.68 1181.11 1190.89 1178.95 1183.8 1176.72C1175.9 1174.17 1168.4 1171.3 1161.31 1168.11C1154.29 1164.92 1148.07 1161.21 1142.64 1156.98C1137.3 1152.68 1133.07 1147.69 1129.96 1142.03C1126.93 1136.37 1125.42 1129.79 1125.42 1122.29C1125.42 1115.03 1127.01 1108.45 1130.2 1102.55C1133.39 1096.57 1137.86 1091.47 1143.6 1087.24C1149.34 1082.93 1156.12 1079.62 1163.94 1077.31C1171.83 1075 1180.49 1073.84 1189.9 1073.84C1202.74 1073.84 1213.94 1076.15 1223.51 1080.78C1233.08 1085.41 1240.5 1091.75 1245.76 1099.8C1251.11 1107.86 1253.78 1117.07 1253.78 1127.43H1218.13C1218.13 1122.33 1217.05 1117.86 1214.9 1114.04C1212.83 1110.13 1209.64 1107.06 1205.33 1104.82C1201.1 1102.59 1195.76 1101.48 1189.3 1101.48C1183.08 1101.48 1177.89 1102.43 1173.75 1104.35C1169.6 1106.18 1166.49 1108.69 1164.42 1111.88C1162.34 1114.99 1161.31 1118.5 1161.31 1122.41C1161.31 1125.36 1162.02 1128.03 1163.46 1130.43C1164.98 1132.82 1167.21 1135.05 1170.16 1137.12C1173.11 1139.2 1176.74 1141.15 1181.05 1142.99C1185.35 1144.82 1190.34 1146.62 1196 1148.37C1205.49 1151.24 1213.82 1154.47 1221 1158.06C1228.26 1161.65 1234.32 1165.68 1239.18 1170.14C1244.05 1174.61 1247.72 1179.67 1250.19 1185.34C1252.66 1191 1253.9 1197.42 1253.9 1204.6C1253.9 1212.17 1252.42 1218.95 1249.47 1224.93C1246.52 1230.91 1242.26 1235.98 1236.67 1240.13C1231.09 1244.27 1224.43 1247.42 1216.69 1249.58C1208.96 1251.73 1200.31 1252.81 1190.74 1252.81C1182.12 1252.81 1173.63 1251.69 1165.25 1249.46C1156.88 1247.14 1149.26 1243.67 1142.41 1239.05C1135.63 1234.42 1130.2 1228.52 1126.14 1221.34C1122.07 1214.17 1120.03 1205.67 1120.03 1195.86H1156.04C1156.04 1201.29 1156.88 1205.87 1158.55 1209.62C1160.23 1213.37 1162.58 1216.4 1165.61 1218.71C1168.72 1221.02 1172.39 1222.7 1176.62 1223.74C1180.93 1224.77 1185.63 1225.29 1190.74 1225.29C1196.96 1225.29 1202.06 1224.41 1206.05 1222.66C1210.11 1220.9 1213.11 1218.47 1215.02 1215.36C1217.01 1212.25 1218.01 1208.74 1218.01 1204.83ZM1394.46 1147.17V1175.17H1303.55V1147.17H1394.46ZM1314.19 1076.23V1250.41H1278.3V1076.23H1314.19ZM1420.06 1076.23V1250.41H1384.29V1076.23H1420.06Z" fill="#363636"/>
<path d="M901.663 615.021C921.88 615.021 939.598 600.407 940.194 580.059C941.405 538.748 931.963 497.48 912.33 460.446C883.69 406.422 835.547 365.53 777.837 346.208C720.127 326.885 657.253 330.608 602.189 356.606C547.125 382.604 504.073 428.895 481.916 485.926C459.759 542.957 460.188 606.377 483.115 663.099C506.042 719.821 549.717 765.516 605.128 790.756C660.539 815.996 723.457 818.855 780.9 798.742C829.959 781.565 871.828 748.753 900.388 705.645C906.906 695.808 899.467 683.307 887.723 683.307H812.64C796.227 699.855 776.185 712.627 753.863 720.442C716.344 733.579 675.249 731.712 639.058 715.226C602.867 698.741 574.341 668.895 559.366 631.847C544.392 594.8 544.111 553.378 558.583 516.128C573.055 478.878 601.174 448.644 637.139 431.663C673.104 414.683 714.17 412.251 751.862 424.872C789.555 437.492 820.999 464.201 839.706 499.486C845.415 510.255 849.732 521.743 852.676 533.604H760.902C747.985 514.576 726.264 502.087 701.646 502.087C662.033 502.087 629.921 534.424 629.921 574.313C629.921 614.202 662.033 646.538 701.646 646.538C726.264 646.538 747.985 634.05 760.902 615.021H901.663Z" fill="#E8143E"/>
<path d="M704.332 195.216C600.978 202.579 504.596 248.385 435.281 323.081C365.966 397.777 329.069 495.597 332.283 596.146L388.407 594.529C385.641 508.017 417.387 423.852 477.026 359.583C536.664 295.315 619.592 255.904 708.517 249.568L704.332 195.216Z" fill="#FE204C"/>
<path d="M701.976 177.413L703.645 272.726C703.81 282.131 713.855 288.07 722.169 283.678L811.03 236.731C819.954 232.016 819.961 219.242 811.042 214.477L720.511 166.112C712.025 161.578 701.808 167.808 701.976 177.413Z" fill="#FE204C"/>
<path d="M390.155 792.602C451.454 871.293 541.945 923.906 643.351 939.817C744.758 955.728 849.524 933.75 936.49 878.321L905.934 832.741C831.108 880.431 740.967 899.341 653.717 885.652C566.467 871.962 488.609 826.693 435.867 758.988L390.155 792.602Z" fill="#FE204C"/>
<path d="M375.533 804.532L459.149 749.948C467.156 744.72 466.488 732.998 457.93 728.573L368.046 682.103C359.252 677.556 348.806 684.102 349.407 693.783L355.674 794.838C356.271 804.465 367.351 809.873 375.533 804.532Z" fill="#FE204C"/>
<path d="M1046.26 734.158C1086.48 644.627 1091.42 543.822 1060.13 451.65C1028.83 359.479 963.554 282.641 877.199 236.311L850.506 284.199C924.806 324.061 980.966 390.172 1007.9 469.477C1034.83 548.781 1030.57 635.514 995.963 712.546L1046.26 734.158Z" fill="#FE204C"/>
<path d="M1062.99 740.293L977.795 697.709C969.327 693.476 959.238 699.691 959.289 709.107L959.815 806.775C959.868 816.676 970.977 822.485 979.389 817.013L1064.06 761.929C1072.23 756.611 1071.64 744.616 1062.99 740.293Z" fill="#FE204C"/>
</svg>
